<svg width="320" height="221" viewBox="0 0 320 221" fill="none" xmlns="http://www.w3.org/2000/svg">
<path d="M10.5775 84.8862C-10.0429 126.357 4.1727 145.18 13.8581 149.408C24.3558 157.35 38.2277 155.29 43.8514 153.268C59.223 152.827 76.8129 167.422 83.6864 174.775C108.431 202.569 141.799 199.591 155.389 194.628C173.76 196.834 181.477 201.429 183.039 203.451C231.404 240.069 283.486 210.988 303.482 191.871C325.602 177.753 320.822 123.488 315.667 98.1207C315.667 68.5619 307.543 48.6723 303.482 42.4223C289.61 12.4223 239.59 14.4811 216.313 19.2605C187.07 25.437 156.639 14.4816 145.079 8.23188C124.459 -2.79752 105.557 -0.407812 98.6831 2.16571C55.5676 13.6363 21.9813 62.0921 10.5775 84.8862Z" fill="#D6E3F9"/>
<path d="M286.449 73.3585H40.7363C39.2155 73.3567 37.7575 72.7518 36.6821 71.6764C35.6067 70.601 35.0018 69.143 35 67.6221V16.7363C35.0018 15.2155 35.6067 13.7575 36.6821 12.6821C37.7575 11.6067 39.2155 11.0018 40.7363 11H286.449C287.97 11.0018 289.428 11.6067 290.503 12.6821C291.579 13.7575 292.184 15.2155 292.185 16.7363V67.6221C292.184 69.1429 291.579 70.601 290.503 71.6764C289.428 72.7518 287.97 73.3567 286.449 73.3585Z" fill="#E6E6E6"/>
<path d="M269.865 69.488H44.6064C43.0856 69.4862 41.6276 68.8813 40.5522 67.8059C39.4768 66.7305 38.8719 65.2725 38.8701 63.7517V20.6074C38.8719 19.0866 39.4768 17.6286 40.5522 16.5532C41.6276 15.4778 43.0856 14.8729 44.6064 14.8711H282.58C284.101 14.8729 285.559 15.4778 286.634 16.5532C287.709 17.6286 288.314 19.0866 288.316 20.6074V51.0369C288.311 55.9287 286.365 60.6186 282.906 64.0777C279.447 67.5368 274.757 69.4825 269.865 69.488V69.488Z" fill="white"/>
<path d="M240.159 34.4315H171.557C171.164 34.4315 170.788 34.2756 170.51 33.9982C170.233 33.7207 170.077 33.3444 170.077 32.9521C170.077 32.5597 170.233 32.1834 170.51 31.906C170.788 31.6285 171.164 31.4727 171.557 31.4727H240.159C240.551 31.4727 240.927 31.6285 241.205 31.906C241.482 32.1834 241.638 32.5597 241.638 32.9521C241.638 33.3444 241.482 33.7207 241.205 33.9982C240.927 34.2756 240.551 34.4315 240.159 34.4315V34.4315Z" fill="#6C63FF"/>
<path d="M257.522 43.2127H154.192C153.8 43.2127 153.424 43.0569 153.146 42.7794C152.869 42.502 152.713 42.1257 152.713 41.7333C152.713 41.3409 152.869 40.9647 153.146 40.6872C153.424 40.4098 153.8 40.2539 154.192 40.2539H257.522C257.914 40.2539 258.29 40.4098 258.568 40.6872C258.845 40.9647 259.001 41.3409 259.001 41.7333C259.001 42.1257 258.845 42.502 258.568 42.7794C258.29 43.0569 257.914 43.2127 257.522 43.2127V43.2127Z" fill="#E6E6E6"/>
<path d="M257.522 52.8885H154.192C153.8 52.8885 153.424 52.7326 153.146 52.4552C152.869 52.1777 152.713 51.8015 152.713 51.4091C152.713 51.0167 152.869 50.6404 153.146 50.363C153.424 50.0856 153.8 49.9297 154.192 49.9297H257.522C257.914 49.9297 258.29 50.0856 258.568 50.363C258.845 50.6404 259.001 51.0167 259.001 51.4091C259.001 51.8015 258.845 52.1777 258.568 52.4552C258.29 52.7326 257.914 52.8885 257.522 52.8885V52.8885Z" fill="#E6E6E6"/>
<path d="M86.8158 34.3533H76.8036C76.4113 34.3533 76.035 34.1975 75.7575 33.92C75.4801 33.6426 75.3242 33.2663 75.3242 32.8739C75.3242 32.4816 75.4801 32.1053 75.7575 31.8278C76.035 31.5504 76.4113 31.3945 76.8036 31.3945H86.8158C87.2082 31.3945 87.5845 31.5504 87.8619 31.8278C88.1394 32.1053 88.2952 32.4816 88.2952 32.8739C88.2952 33.2663 88.1394 33.6426 87.8619 33.92C87.5845 34.1975 87.2082 34.3533 86.8158 34.3533Z" fill="#6C63FF"/>
<path d="M104.18 43.1346H59.4403C59.048 43.1346 58.6717 42.9787 58.3942 42.7013C58.1168 42.4238 57.9609 42.0475 57.9609 41.6552C57.9609 41.2628 58.1168 40.8865 58.3942 40.6091C58.6717 40.3316 59.048 40.1758 59.4403 40.1758H104.18C104.572 40.1758 104.949 40.3316 105.226 40.6091C105.504 40.8865 105.659 41.2628 105.659 41.6552C105.659 42.0475 105.504 42.4238 105.226 42.7013C104.949 42.9787 104.572 43.1346 104.18 43.1346V43.1346Z" fill="#E6E6E6"/>
<path d="M104.18 52.8084H59.4403C59.048 52.8084 58.6717 52.6525 58.3942 52.3751C58.1168 52.0977 57.9609 51.7214 57.9609 51.329C57.9609 50.9366 58.1168 50.5604 58.3942 50.2829C58.6717 50.0055 59.048 49.8496 59.4403 49.8496H104.18C104.572 49.8496 104.949 50.0055 105.226 50.2829C105.504 50.5604 105.659 50.9366 105.659 51.329C105.659 51.7214 105.504 52.0977 105.226 52.3751C104.949 52.6525 104.572 52.8084 104.18 52.8084V52.8084Z" fill="#E6E6E6"/>
<path d="M274.074 132.788H53.1126C51.745 132.786 50.4338 132.242 49.4667 131.275C48.4997 130.308 47.9557 128.997 47.9541 127.629V81.8694C47.9557 80.5018 48.4997 79.1906 49.4667 78.2236C50.4338 77.2565 51.745 76.7125 53.1126 76.7109H274.074C275.442 76.7125 276.753 77.2565 277.72 78.2236C278.687 79.1906 279.231 80.5018 279.233 81.8694V127.629C279.231 128.997 278.687 130.308 277.72 131.275C276.753 132.242 275.442 132.786 274.074 132.788Z" fill="#E6E6E6" fill-opacity="0.53"/>
<path d="M259.161 129.309H56.5931C55.2254 129.307 53.9143 128.763 52.9472 127.796C51.9801 126.829 51.4362 125.518 51.4346 124.15V85.3519C51.4362 83.9842 51.9801 82.6731 52.9472 81.706C53.9143 80.7389 55.2254 80.1949 56.5931 80.1934H270.595C271.963 80.1949 273.274 80.7389 274.241 81.706C275.208 82.6731 275.752 83.9842 275.754 85.3519V112.716C275.749 117.115 273.999 121.333 270.888 124.443C267.778 127.554 263.56 129.304 259.161 129.309V129.309Z" fill="white"/>
<path d="M232.447 97.7819H170.755C170.402 97.7819 170.064 97.6417 169.814 97.3922C169.565 97.1427 169.425 96.8043 169.425 96.4515C169.425 96.0986 169.565 95.7602 169.814 95.5108C170.064 95.2613 170.402 95.1211 170.755 95.1211H232.447C232.8 95.1211 233.138 95.2613 233.388 95.5108C233.637 95.7602 233.777 96.0986 233.777 96.4515C233.777 96.8043 233.637 97.1427 233.388 97.3922C233.138 97.6417 232.8 97.7819 232.447 97.7819V97.7819Z" fill="#6C63FF"/>
<path d="M248.061 105.68H155.14C154.787 105.68 154.449 105.54 154.199 105.291C153.95 105.041 153.81 104.703 153.81 104.35C153.81 103.997 153.95 103.659 154.199 103.409C154.449 103.16 154.787 103.02 155.14 103.02H248.061C248.414 103.02 248.752 103.16 249.002 103.409C249.251 103.659 249.391 103.997 249.391 104.35C249.391 104.703 249.251 105.041 249.002 105.291C248.752 105.54 248.414 105.68 248.061 105.68V105.68Z" fill="#E6E6E6" fill-opacity="0.53"/>
<path d="M248.061 114.381H155.14C154.787 114.381 154.449 114.241 154.199 113.992C153.95 113.742 153.81 113.404 153.81 113.051C153.81 112.698 153.95 112.36 154.199 112.11C154.449 111.861 154.787 111.721 155.14 111.721H248.061C248.414 111.721 248.752 111.861 249.002 112.11C249.251 112.36 249.391 112.698 249.391 113.051C249.391 113.404 249.251 113.742 249.002 113.992C248.752 114.241 248.414 114.381 248.061 114.381V114.381Z" fill="#E6E6E6" fill-opacity="0.53"/>
<path d="M99.584 97.7115H90.5804C90.2275 97.7115 89.8892 97.5714 89.6397 97.3219C89.3902 97.0724 89.25 96.734 89.25 96.3812C89.25 96.0283 89.3902 95.6899 89.6397 95.4404C89.8892 95.1909 90.2275 95.0508 90.5804 95.0508H99.584C99.9369 95.0508 100.275 95.1909 100.525 95.4404C100.774 95.6899 100.914 96.0283 100.914 96.3812C100.914 96.734 100.774 97.0724 100.525 97.3219C100.275 97.5714 99.9369 97.7115 99.584 97.7115Z" fill="#6C63FF"/>
<path d="M115.199 105.608H74.9661C74.6133 105.608 74.2749 105.468 74.0254 105.218C73.7759 104.969 73.6357 104.63 73.6357 104.278C73.6357 103.925 73.7759 103.586 74.0254 103.337C74.2749 103.087 74.6133 102.947 74.9661 102.947H115.199C115.552 102.947 115.89 103.087 116.14 103.337C116.389 103.586 116.53 103.925 116.53 104.278C116.53 104.63 116.389 104.969 116.14 105.218C115.89 105.468 115.552 105.608 115.199 105.608V105.608Z" fill="#E6E6E6" fill-opacity="0.53"/>
<path d="M115.199 114.309H74.9661C74.6133 114.309 74.2749 114.169 74.0254 113.92C73.7759 113.67 73.6357 113.332 73.6357 112.979C73.6357 112.626 73.7759 112.288 74.0254 112.038C74.2749 111.789 74.6133 111.648 74.9661 111.648H115.199C115.552 111.648 115.89 111.789 116.14 112.038C116.389 112.288 116.53 112.626 116.53 112.979C116.53 113.332 116.389 113.67 116.14 113.92C115.89 114.169 115.552 114.309 115.199 114.309V114.309Z" fill="#E6E6E6" fill-opacity="0.53"/>
<path d="M254.745 187.123H72.4425C71.3141 187.122 70.2324 186.673 69.4345 185.875C68.6366 185.077 68.1878 183.996 68.1865 182.867V145.113C68.1878 143.985 68.6366 142.903 69.4345 142.105C70.2324 141.308 71.3141 140.859 72.4425 140.857H254.745C255.873 140.859 256.955 141.308 257.753 142.105C258.55 142.903 258.999 143.985 259.001 145.113V182.867C258.999 183.996 258.55 185.077 257.753 185.875C256.955 186.673 255.873 187.122 254.745 187.123Z" fill="#E6E6E6" fill-opacity="0.49"/>
<path d="M242.441 184.253H75.3146C74.1862 184.251 73.1044 183.802 72.3066 183.005C71.5087 182.207 71.0599 181.125 71.0586 179.997V147.986C71.0599 146.858 71.5087 145.776 72.3066 144.978C73.1044 144.181 74.1862 143.732 75.3146 143.73H251.875C253.003 143.732 254.085 144.181 254.883 144.978C255.68 145.776 256.129 146.858 256.131 147.986V170.563C256.126 174.192 254.683 177.672 252.116 180.238C249.55 182.805 246.071 184.248 242.441 184.253V184.253Z" fill="white"/>
<path d="M220.4 158.242H169.502C169.211 158.242 168.932 158.126 168.726 157.921C168.52 157.715 168.404 157.436 168.404 157.144C168.404 156.853 168.52 156.574 168.726 156.368C168.932 156.163 169.211 156.047 169.502 156.047H220.4C220.691 156.047 220.97 156.163 221.176 156.368C221.382 156.574 221.498 156.853 221.498 157.144C221.498 157.436 221.382 157.715 221.176 157.921C220.97 158.126 220.691 158.242 220.4 158.242V158.242Z" fill="#6C63FF"/>
<path d="M233.283 164.758H156.619C156.328 164.758 156.049 164.642 155.843 164.436C155.637 164.23 155.521 163.951 155.521 163.66C155.521 163.369 155.637 163.09 155.843 162.884C156.049 162.678 156.328 162.563 156.619 162.562H233.283C233.574 162.562 233.853 162.678 234.059 162.884C234.265 163.09 234.38 163.369 234.38 163.66C234.38 163.951 234.265 164.23 234.059 164.436C233.853 164.642 233.574 164.758 233.283 164.758V164.758Z" fill="#E6E6E6" fill-opacity="0.49"/>
<path d="M233.283 171.937H156.619C156.328 171.937 156.049 171.822 155.843 171.616C155.637 171.41 155.521 171.131 155.521 170.84C155.521 170.549 155.637 170.27 155.843 170.064C156.049 169.858 156.328 169.742 156.619 169.742H233.283C233.574 169.742 233.853 169.858 234.059 170.064C234.265 170.27 234.38 170.549 234.38 170.84C234.38 171.131 234.265 171.41 234.059 171.616C233.853 171.822 233.574 171.937 233.283 171.937V171.937Z" fill="#E6E6E6" fill-opacity="0.49"/>
<path d="M114.789 158.184H107.36C107.069 158.184 106.79 158.068 106.584 157.862C106.378 157.656 106.263 157.377 106.263 157.086C106.263 156.795 106.378 156.516 106.584 156.31C106.79 156.104 107.069 155.988 107.36 155.988H114.789C115.08 155.988 115.359 156.104 115.565 156.31C115.771 156.516 115.886 156.795 115.886 157.086C115.886 157.377 115.771 157.656 115.565 157.862C115.359 158.068 115.08 158.184 114.789 158.184Z" fill="#6C63FF"/>
<path d="M127.671 164.697H94.4775C94.1864 164.697 93.9072 164.582 93.7014 164.376C93.4955 164.17 93.3799 163.891 93.3799 163.6C93.3799 163.308 93.4955 163.029 93.7014 162.823C93.9072 162.618 94.1864 162.502 94.4775 162.502H127.671C127.962 162.502 128.242 162.618 128.447 162.823C128.653 163.029 128.769 163.308 128.769 163.6C128.769 163.891 128.653 164.17 128.447 164.376C128.242 164.582 127.962 164.697 127.671 164.697V164.697Z" fill="#E6E6E6" fill-opacity="0.49"/>
<path d="M127.671 171.877H94.4775C94.1864 171.877 93.9072 171.761 93.7014 171.555C93.4955 171.35 93.3799 171.07 93.3799 170.779C93.3799 170.488 93.4955 170.209 93.7014 170.003C93.9072 169.797 94.1864 169.682 94.4775 169.682H127.671C127.962 169.682 128.242 169.797 128.447 170.003C128.653 170.209 128.769 170.488 128.769 170.779C128.769 171.07 128.653 171.35 128.447 171.555C128.242 171.761 127.962 171.877 127.671 171.877V171.877Z" fill="#E6E6E6" fill-opacity="0.49"/>
</svg>
