<svg width="342" height="201" viewBox="0 0 342 201" fill="none" xmlns="http://www.w3.org/2000/svg">
<path d="M11.2852 76.9636C-10.7148 114.564 4.45186 131.63 14.7852 135.464C25.9852 142.664 40.7852 140.797 46.7852 138.963C63.1852 138.563 81.9518 151.796 89.2852 158.463C115.685 183.663 151.285 180.963 165.785 176.463C185.385 178.463 193.618 182.63 195.285 184.463C246.885 217.663 302.452 191.296 323.785 173.963C347.385 161.163 342.285 111.963 336.785 88.9629C336.785 62.1629 328.118 44.1296 323.785 38.4629C308.985 11.2629 255.618 13.1296 230.785 17.4629C199.585 23.0629 167.118 13.13 154.785 7.46358C132.785 -2.53642 112.618 -0.36975 105.285 1.96358C59.2852 12.3636 23.4518 56.2969 11.2852 76.9636Z" fill="#F6F7FF"/>
<path d="M300.449 77.3585H54.7363C53.2155 77.3567 51.7575 76.7518 50.6821 75.6764C49.6067 74.601 49.0018 73.143 49 71.6221V20.7363C49.0018 19.2155 49.6067 17.7575 50.6821 16.6821C51.7575 15.6067 53.2155 15.0018 54.7363 15H300.449C301.97 15.0018 303.428 15.6067 304.503 16.6821C305.579 17.7575 306.184 19.2155 306.185 20.7363V71.6221C306.184 73.1429 305.579 74.601 304.503 75.6764C303.428 76.7518 301.97 77.3567 300.449 77.3585Z" fill="#E6E6E6"/>
<path d="M283.865 73.488H58.6064C57.0856 73.4862 55.6276 72.8813 54.5522 71.8059C53.4768 70.7305 52.8719 69.2725 52.8701 67.7517V24.6074C52.8719 23.0866 53.4768 21.6286 54.5522 20.5532C55.6276 19.4778 57.0856 18.8729 58.6064 18.8711H296.58C298.101 18.8729 299.559 19.4778 300.634 20.5532C301.709 21.6286 302.314 23.0866 302.316 24.6074V55.0369C302.311 59.9287 300.365 64.6186 296.906 68.0777C293.447 71.5368 288.757 73.4825 283.865 73.488V73.488Z" fill="white"/>
<path d="M254.158 38.4315H185.556C185.164 38.4315 184.787 38.2756 184.51 37.9982C184.233 37.7207 184.077 37.3444 184.077 36.9521C184.077 36.5597 184.233 36.1834 184.51 35.906C184.787 35.6285 185.164 35.4727 185.556 35.4727H254.158C254.55 35.4727 254.927 35.6285 255.204 35.906C255.482 36.1834 255.637 36.5597 255.637 36.9521C255.637 37.3444 255.482 37.7207 255.204 37.9982C254.927 38.2756 254.55 38.4315 254.158 38.4315V38.4315Z" fill="#6C63FF"/>
<path d="M271.522 47.2127H168.192C167.8 47.2127 167.424 47.0569 167.146 46.7794C166.869 46.502 166.713 46.1257 166.713 45.7333C166.713 45.3409 166.869 44.9647 167.146 44.6872C167.424 44.4098 167.8 44.2539 168.192 44.2539H271.522C271.914 44.2539 272.29 44.4098 272.568 44.6872C272.845 44.9647 273.001 45.3409 273.001 45.7333C273.001 46.1257 272.845 46.502 272.568 46.7794C272.29 47.0569 271.914 47.2127 271.522 47.2127V47.2127Z" fill="#E6E6E6"/>
<path d="M271.522 56.8885H168.192C167.8 56.8885 167.424 56.7326 167.146 56.4552C166.869 56.1777 166.713 55.8015 166.713 55.4091C166.713 55.0167 166.869 54.6404 167.146 54.363C167.424 54.0856 167.8 53.9297 168.192 53.9297H271.522C271.914 53.9297 272.29 54.0856 272.568 54.363C272.845 54.6404 273.001 55.0167 273.001 55.4091C273.001 55.8015 272.845 56.1777 272.568 56.4552C272.29 56.7326 271.914 56.8885 271.522 56.8885V56.8885Z" fill="#E6E6E6"/>
<path d="M100.816 38.3533H90.8036C90.4113 38.3533 90.035 38.1975 89.7575 37.92C89.4801 37.6426 89.3242 37.2663 89.3242 36.8739C89.3242 36.4816 89.4801 36.1053 89.7575 35.8278C90.035 35.5504 90.4113 35.3945 90.8036 35.3945H100.816C101.208 35.3945 101.584 35.5504 101.862 35.8278C102.139 36.1053 102.295 36.4816 102.295 36.8739C102.295 37.2663 102.139 37.6426 101.862 37.92C101.584 38.1975 101.208 38.3533 100.816 38.3533Z" fill="#6C63FF"/>
<path d="M118.18 47.1346H73.4399C73.0475 47.1346 72.6712 46.9787 72.3938 46.7013C72.1163 46.4238 71.9604 46.0475 71.9604 45.6552C71.9604 45.2628 72.1163 44.8865 72.3938 44.6091C72.6712 44.3316 73.0475 44.1758 73.4399 44.1758H118.18C118.572 44.1758 118.948 44.3316 119.226 44.6091C119.503 44.8865 119.659 45.2628 119.659 45.6552C119.659 46.0475 119.503 46.4238 119.226 46.7013C118.948 46.9787 118.572 47.1346 118.18 47.1346V47.1346Z" fill="#E6E6E6"/>
<path d="M118.18 56.8084H73.4399C73.0475 56.8084 72.6712 56.6525 72.3938 56.3751C72.1163 56.0977 71.9604 55.7214 71.9604 55.329C71.9604 54.9366 72.1163 54.5604 72.3938 54.2829C72.6712 54.0055 73.0475 53.8496 73.4399 53.8496H118.18C118.572 53.8496 118.948 54.0055 119.226 54.2829C119.503 54.5604 119.659 54.9366 119.659 55.329C119.659 55.7214 119.503 56.0977 119.226 56.3751C118.948 56.6525 118.572 56.8084 118.18 56.8084V56.8084Z" fill="#E6E6E6"/>
<path d="M288.074 136.788H67.1126C65.745 136.786 64.4338 136.242 63.4667 135.275C62.4997 134.308 61.9557 132.997 61.9541 131.629V85.8694C61.9557 84.5018 62.4997 83.1906 63.4667 82.2236C64.4338 81.2565 65.745 80.7125 67.1126 80.7109H288.074C289.442 80.7125 290.753 81.2565 291.72 82.2236C292.687 83.1906 293.231 84.5018 293.233 85.8694V131.629C293.231 132.997 292.687 134.308 291.72 135.275C290.753 136.242 289.442 136.786 288.074 136.788Z" fill="#E6E6E6" fill-opacity="0.53"/>
<path d="M273.161 133.309H70.5931C69.2254 133.307 67.9143 132.763 66.9472 131.796C65.9801 130.829 65.4362 129.518 65.4346 128.15V89.3519C65.4362 87.9842 65.9801 86.6731 66.9472 85.706C67.9143 84.7389 69.2254 84.1949 70.5931 84.1934H284.595C285.963 84.1949 287.274 84.7389 288.241 85.706C289.208 86.6731 289.752 87.9842 289.754 89.3519V116.716C289.749 121.115 287.999 125.333 284.888 128.443C281.778 131.554 277.56 133.304 273.161 133.309V133.309Z" fill="white"/>
<path d="M246.447 101.782H184.755C184.402 101.782 184.064 101.642 183.814 101.392C183.565 101.143 183.425 100.804 183.425 100.451C183.425 100.099 183.565 99.7602 183.814 99.5108C184.064 99.2613 184.402 99.1211 184.755 99.1211H246.447C246.8 99.1211 247.138 99.2613 247.388 99.5108C247.637 99.7602 247.777 100.099 247.777 100.451C247.777 100.804 247.637 101.143 247.388 101.392C247.138 101.642 246.8 101.782 246.447 101.782V101.782Z" fill="#6C63FF"/>
<path d="M262.061 109.68H169.14C168.787 109.68 168.449 109.54 168.199 109.291C167.95 109.041 167.81 108.703 167.81 108.35C167.81 107.997 167.95 107.659 168.199 107.409C168.449 107.16 168.787 107.02 169.14 107.02H262.061C262.414 107.02 262.752 107.16 263.002 107.409C263.251 107.659 263.391 107.997 263.391 108.35C263.391 108.703 263.251 109.041 263.002 109.291C262.752 109.54 262.414 109.68 262.061 109.68V109.68Z" fill="#E6E6E6" fill-opacity="0.53"/>
<path d="M262.061 118.381H169.14C168.787 118.381 168.449 118.241 168.199 117.992C167.95 117.742 167.81 117.404 167.81 117.051C167.81 116.698 167.95 116.36 168.199 116.11C168.449 115.861 168.787 115.721 169.14 115.721H262.061C262.414 115.721 262.752 115.861 263.002 116.11C263.251 116.36 263.391 116.698 263.391 117.051C263.391 117.404 263.251 117.742 263.002 117.992C262.752 118.241 262.414 118.381 262.061 118.381V118.381Z" fill="#E6E6E6" fill-opacity="0.53"/>
<path d="M113.584 101.712H104.58C104.228 101.712 103.889 101.571 103.64 101.322C103.39 101.072 103.25 100.734 103.25 100.381C103.25 100.028 103.39 99.6899 103.64 99.4404C103.889 99.1909 104.228 99.0508 104.58 99.0508H113.584C113.937 99.0508 114.275 99.1909 114.525 99.4404C114.774 99.6899 114.914 100.028 114.914 100.381C114.914 100.734 114.774 101.072 114.525 101.322C114.275 101.571 113.937 101.712 113.584 101.712Z" fill="#6C63FF"/>
<path d="M129.199 109.608H88.9656C88.6128 109.608 88.2744 109.468 88.0249 109.218C87.7754 108.969 87.6353 108.63 87.6353 108.278C87.6353 107.925 87.7754 107.586 88.0249 107.337C88.2744 107.087 88.6128 106.947 88.9656 106.947H129.199C129.552 106.947 129.89 107.087 130.139 107.337C130.389 107.586 130.529 107.925 130.529 108.278C130.529 108.63 130.389 108.969 130.139 109.218C129.89 109.468 129.552 109.608 129.199 109.608V109.608Z" fill="#E6E6E6" fill-opacity="0.53"/>
<path d="M129.199 118.309H88.9656C88.6128 118.309 88.2744 118.169 88.0249 117.92C87.7754 117.67 87.6353 117.332 87.6353 116.979C87.6353 116.626 87.7754 116.288 88.0249 116.038C88.2744 115.789 88.6128 115.648 88.9656 115.648H129.199C129.552 115.648 129.89 115.789 130.139 116.038C130.389 116.288 130.529 116.626 130.529 116.979C130.529 117.332 130.389 117.67 130.139 117.92C129.89 118.169 129.552 118.309 129.199 118.309V118.309Z" fill="#E6E6E6" fill-opacity="0.53"/>
<path d="M268.744 191.123H86.442C85.3136 191.122 84.2319 190.673 83.434 189.875C82.6362 189.077 82.1873 187.996 82.186 186.867V149.113C82.1873 147.985 82.6362 146.903 83.434 146.105C84.2319 145.308 85.3136 144.859 86.442 144.857H268.744C269.873 144.859 270.954 145.308 271.752 146.105C272.55 146.903 272.999 147.985 273 149.113V186.867C272.999 187.996 272.55 189.077 271.752 189.875C270.954 190.673 269.873 191.122 268.744 191.123Z" fill="#E6E6E6" fill-opacity="0.49"/>
<path d="M256.44 188.253H89.3136C88.1852 188.251 87.1035 187.802 86.3056 187.005C85.5077 186.207 85.0589 185.125 85.0576 183.997V151.986C85.0589 150.858 85.5077 149.776 86.3056 148.978C87.1035 148.181 88.1852 147.732 89.3136 147.73H265.874C267.002 147.732 268.084 148.181 268.882 148.978C269.679 149.776 270.128 150.858 270.13 151.986V174.563C270.126 178.192 268.682 181.672 266.116 184.238C263.549 186.805 260.07 188.248 256.44 188.253V188.253Z" fill="white"/>
<path d="M234.399 162.242H183.501C183.21 162.242 182.931 162.126 182.725 161.921C182.519 161.715 182.404 161.436 182.404 161.144C182.404 160.853 182.519 160.574 182.725 160.368C182.931 160.163 183.21 160.047 183.501 160.047H234.399C234.691 160.047 234.97 160.163 235.176 160.368C235.381 160.574 235.497 160.853 235.497 161.144C235.497 161.436 235.381 161.715 235.176 161.921C234.97 162.126 234.691 162.242 234.399 162.242V162.242Z" fill="#6C63FF"/>
<path d="M247.282 168.758H170.619C170.328 168.758 170.048 168.642 169.842 168.436C169.637 168.23 169.521 167.951 169.521 167.66C169.521 167.369 169.637 167.09 169.842 166.884C170.048 166.678 170.328 166.563 170.619 166.562H247.282C247.573 166.562 247.852 166.678 248.058 166.884C248.264 167.09 248.38 167.369 248.38 167.66C248.38 167.951 248.264 168.23 248.058 168.436C247.852 168.642 247.573 168.758 247.282 168.758V168.758Z" fill="#E6E6E6" fill-opacity="0.49"/>
<path d="M247.282 175.937H170.619C170.328 175.937 170.048 175.822 169.842 175.616C169.637 175.41 169.521 175.131 169.521 174.84C169.521 174.549 169.637 174.27 169.842 174.064C170.048 173.858 170.328 173.742 170.619 173.742H247.282C247.573 173.742 247.852 173.858 248.058 174.064C248.264 174.27 248.38 174.549 248.38 174.84C248.38 175.131 248.264 175.41 248.058 175.616C247.852 175.822 247.573 175.937 247.282 175.937V175.937Z" fill="#E6E6E6" fill-opacity="0.49"/>
<path d="M128.788 162.184H121.36C121.069 162.184 120.79 162.068 120.584 161.862C120.378 161.656 120.262 161.377 120.262 161.086C120.262 160.795 120.378 160.516 120.584 160.31C120.79 160.104 121.069 159.988 121.36 159.988H128.788C129.079 159.988 129.358 160.104 129.564 160.31C129.77 160.516 129.886 160.795 129.886 161.086C129.886 161.377 129.77 161.656 129.564 161.862C129.358 162.068 129.079 162.184 128.788 162.184Z" fill="#6C63FF"/>
<path d="M141.671 168.697H108.477C108.186 168.697 107.907 168.582 107.701 168.376C107.495 168.17 107.379 167.891 107.379 167.6C107.379 167.308 107.495 167.029 107.701 166.823C107.907 166.618 108.186 166.502 108.477 166.502H141.671C141.962 166.502 142.241 166.618 142.447 166.823C142.653 167.029 142.768 167.308 142.768 167.6C142.768 167.891 142.653 168.17 142.447 168.376C142.241 168.582 141.962 168.697 141.671 168.697V168.697Z" fill="#E6E6E6" fill-opacity="0.49"/>
<path d="M141.671 175.877H108.477C108.186 175.877 107.907 175.761 107.701 175.555C107.495 175.35 107.379 175.07 107.379 174.779C107.379 174.488 107.495 174.209 107.701 174.003C107.907 173.797 108.186 173.682 108.477 173.682H141.671C141.962 173.682 142.241 173.797 142.447 174.003C142.653 174.209 142.768 174.488 142.768 174.779C142.768 175.07 142.653 175.35 142.447 175.555C142.241 175.761 141.962 175.877 141.671 175.877V175.877Z" fill="#E6E6E6" fill-opacity="0.49"/>
</svg>
